<svg width="34" height="34" viewBox="0 0 34 34" fill="none" xmlns="http://www.w3.org/2000/svg">
<circle cx="17" cy="17" r="16.25" stroke="white" stroke-width="0.5"/>
<path d="M22.0284 5H11.9716C8.12745 5 5 8.12745 5 11.9716V22.0284C5 25.8725 8.12745 29 11.9716 29H22.0284C25.8725 29 29 25.8725 29 22.0284V11.9716C29 8.12745 25.8725 5 22.0284 5ZM27.125 22.0284C27.125 24.8387 24.8387 27.125 22.0284 27.125H11.9716C9.16133 27.125 6.875 24.8387 6.875 22.0284V11.9716C6.875 9.16133 9.16133 6.875 11.9716 6.875H22.0284C24.8387 6.875 27.125 9.16133 27.125 11.9716V22.0284Z" fill="white"/>
<path d="M17 10.5312C13.4331 10.5312 10.5312 13.4331 10.5312 17C10.5312 20.5669 13.4331 23.4688 17 23.4688C20.5669 23.4688 23.4688 20.5669 23.4688 17C23.4688 13.4331 20.5669 10.5312 17 10.5312ZM17 21.5938C14.467 21.5938 12.4062 19.533 12.4062 17C12.4062 14.467 14.467 12.4062 17 12.4062C19.533 12.4062 21.5938 14.467 21.5938 17C21.5938 19.533 19.533 21.5938 17 21.5938Z" fill="white"/>
<path d="M23.5625 11.375C24.0803 11.375 24.5 10.9553 24.5 10.4375C24.5 9.91973 24.0803 9.5 23.5625 9.5C23.0447 9.5 22.625 9.91973 22.625 10.4375C22.625 10.9553 23.0447 11.375 23.5625 11.375Z" fill="white"/>
</svg>
