<svg width="34" height="34" viewBox="0 0 34 34" fill="none" xmlns="http://www.w3.org/2000/svg">
<circle cx="17" cy="17" r="16.25" stroke="white" stroke-width="0.5"/>
<path d="M29 9.3085C28.1075 9.7 27.1565 9.9595 26.165 10.0855C27.185 9.4765 27.9635 8.5195 28.3295 7.366C27.3785 7.933 26.3285 8.3335 25.2095 8.557C24.3065 7.5955 23.0195 7 21.6155 7C18.8915 7 16.6985 9.211 16.6985 11.9215C16.6985 12.3115 16.7315 12.6865 16.8125 13.0435C12.722 12.844 9.1025 10.8835 6.671 7.897C6.2465 8.6335 5.9975 9.4765 5.9975 10.384C5.9975 12.088 6.875 13.5985 8.183 14.473C7.3925 14.458 6.617 14.2285 5.96 13.867C5.96 13.882 5.96 13.9015 5.96 13.921C5.96 16.312 7.6655 18.298 9.902 18.7555C9.5015 18.865 9.065 18.9175 8.612 18.9175C8.297 18.9175 7.979 18.8995 7.6805 18.8335C8.318 20.782 10.127 22.2145 12.278 22.261C10.604 23.5705 8.4785 24.3595 6.1775 24.3595C5.774 24.3595 5.387 24.3415 5 24.292C7.1795 25.6975 9.7625 26.5 12.548 26.5C21.602 26.5 26.552 19 26.552 12.499C26.552 12.2815 26.5445 12.0715 26.534 11.863C27.5105 11.17 28.331 10.3045 29 9.3085Z" fill="white"/>
</svg>
